G75*
%MOIN*%
%OFA0B0*%
%FSLAX25Y25*%
%IPPOS*%
%LPD*%
%AMOC8*
5,1,8,0,0,1.08239X$1,22.5*
%
%ADD10C,0.00000*%
%ADD11C,0.03937*%
D10*
X0002969Y0003756D02*
X0002969Y0069110D01*
X0061236Y0069110D01*
X0061236Y0003756D01*
X0002969Y0003756D01*
X0007887Y0057024D02*
X0007889Y0057093D01*
X0007895Y0057161D01*
X0007905Y0057229D01*
X0007919Y0057296D01*
X0007937Y0057363D01*
X0007958Y0057428D01*
X0007984Y0057492D01*
X0008013Y0057554D01*
X0008045Y0057614D01*
X0008081Y0057673D01*
X0008121Y0057729D01*
X0008163Y0057783D01*
X0008209Y0057834D01*
X0008258Y0057883D01*
X0008309Y0057929D01*
X0008363Y0057971D01*
X0008419Y0058011D01*
X0008477Y0058047D01*
X0008538Y0058079D01*
X0008600Y0058108D01*
X0008664Y0058134D01*
X0008729Y0058155D01*
X0008796Y0058173D01*
X0008863Y0058187D01*
X0008931Y0058197D01*
X0008999Y0058203D01*
X0009068Y0058205D01*
X0009137Y0058203D01*
X0009205Y0058197D01*
X0009273Y0058187D01*
X0009340Y0058173D01*
X0009407Y0058155D01*
X0009472Y0058134D01*
X0009536Y0058108D01*
X0009598Y0058079D01*
X0009658Y0058047D01*
X0009717Y0058011D01*
X0009773Y0057971D01*
X0009827Y0057929D01*
X0009878Y0057883D01*
X0009927Y0057834D01*
X0009973Y0057783D01*
X0010015Y0057729D01*
X0010055Y0057673D01*
X0010091Y0057614D01*
X0010123Y0057554D01*
X0010152Y0057492D01*
X0010178Y0057428D01*
X0010199Y0057363D01*
X0010217Y0057296D01*
X0010231Y0057229D01*
X0010241Y0057161D01*
X0010247Y0057093D01*
X0010249Y0057024D01*
X0010247Y0056955D01*
X0010241Y0056887D01*
X0010231Y0056819D01*
X0010217Y0056752D01*
X0010199Y0056685D01*
X0010178Y0056620D01*
X0010152Y0056556D01*
X0010123Y0056494D01*
X0010091Y0056433D01*
X0010055Y0056375D01*
X0010015Y0056319D01*
X0009973Y0056265D01*
X0009927Y0056214D01*
X0009878Y0056165D01*
X0009827Y0056119D01*
X0009773Y0056077D01*
X0009717Y0056037D01*
X0009659Y0056001D01*
X0009598Y0055969D01*
X0009536Y0055940D01*
X0009472Y0055914D01*
X0009407Y0055893D01*
X0009340Y0055875D01*
X0009273Y0055861D01*
X0009205Y0055851D01*
X0009137Y0055845D01*
X0009068Y0055843D01*
X0008999Y0055845D01*
X0008931Y0055851D01*
X0008863Y0055861D01*
X0008796Y0055875D01*
X0008729Y0055893D01*
X0008664Y0055914D01*
X0008600Y0055940D01*
X0008538Y0055969D01*
X0008477Y0056001D01*
X0008419Y0056037D01*
X0008363Y0056077D01*
X0008309Y0056119D01*
X0008258Y0056165D01*
X0008209Y0056214D01*
X0008163Y0056265D01*
X0008121Y0056319D01*
X0008081Y0056375D01*
X0008045Y0056433D01*
X0008013Y0056494D01*
X0007984Y0056556D01*
X0007958Y0056620D01*
X0007937Y0056685D01*
X0007919Y0056752D01*
X0007905Y0056819D01*
X0007895Y0056887D01*
X0007889Y0056955D01*
X0007887Y0057024D01*
X0053756Y0057024D02*
X0053758Y0057093D01*
X0053764Y0057161D01*
X0053774Y0057229D01*
X0053788Y0057296D01*
X0053806Y0057363D01*
X0053827Y0057428D01*
X0053853Y0057492D01*
X0053882Y0057554D01*
X0053914Y0057614D01*
X0053950Y0057673D01*
X0053990Y0057729D01*
X0054032Y0057783D01*
X0054078Y0057834D01*
X0054127Y0057883D01*
X0054178Y0057929D01*
X0054232Y0057971D01*
X0054288Y0058011D01*
X0054346Y0058047D01*
X0054407Y0058079D01*
X0054469Y0058108D01*
X0054533Y0058134D01*
X0054598Y0058155D01*
X0054665Y0058173D01*
X0054732Y0058187D01*
X0054800Y0058197D01*
X0054868Y0058203D01*
X0054937Y0058205D01*
X0055006Y0058203D01*
X0055074Y0058197D01*
X0055142Y0058187D01*
X0055209Y0058173D01*
X0055276Y0058155D01*
X0055341Y0058134D01*
X0055405Y0058108D01*
X0055467Y0058079D01*
X0055527Y0058047D01*
X0055586Y0058011D01*
X0055642Y0057971D01*
X0055696Y0057929D01*
X0055747Y0057883D01*
X0055796Y0057834D01*
X0055842Y0057783D01*
X0055884Y0057729D01*
X0055924Y0057673D01*
X0055960Y0057614D01*
X0055992Y0057554D01*
X0056021Y0057492D01*
X0056047Y0057428D01*
X0056068Y0057363D01*
X0056086Y0057296D01*
X0056100Y0057229D01*
X0056110Y0057161D01*
X0056116Y0057093D01*
X0056118Y0057024D01*
X0056116Y0056955D01*
X0056110Y0056887D01*
X0056100Y0056819D01*
X0056086Y0056752D01*
X0056068Y0056685D01*
X0056047Y0056620D01*
X0056021Y0056556D01*
X0055992Y0056494D01*
X0055960Y0056433D01*
X0055924Y0056375D01*
X0055884Y0056319D01*
X0055842Y0056265D01*
X0055796Y0056214D01*
X0055747Y0056165D01*
X0055696Y0056119D01*
X0055642Y0056077D01*
X0055586Y0056037D01*
X0055528Y0056001D01*
X0055467Y0055969D01*
X0055405Y0055940D01*
X0055341Y0055914D01*
X0055276Y0055893D01*
X0055209Y0055875D01*
X0055142Y0055861D01*
X0055074Y0055851D01*
X0055006Y0055845D01*
X0054937Y0055843D01*
X0054868Y0055845D01*
X0054800Y0055851D01*
X0054732Y0055861D01*
X0054665Y0055875D01*
X0054598Y0055893D01*
X0054533Y0055914D01*
X0054469Y0055940D01*
X0054407Y0055969D01*
X0054346Y0056001D01*
X0054288Y0056037D01*
X0054232Y0056077D01*
X0054178Y0056119D01*
X0054127Y0056165D01*
X0054078Y0056214D01*
X0054032Y0056265D01*
X0053990Y0056319D01*
X0053950Y0056375D01*
X0053914Y0056433D01*
X0053882Y0056494D01*
X0053853Y0056556D01*
X0053827Y0056620D01*
X0053806Y0056685D01*
X0053788Y0056752D01*
X0053774Y0056819D01*
X0053764Y0056887D01*
X0053758Y0056955D01*
X0053756Y0057024D01*
D11*
X0061236Y0062811D02*
X0061236Y0029740D01*
X0054346Y0024425D01*
X0054150Y0018717D02*
X0054150Y0009661D01*
X0042339Y0009661D01*
X0038598Y0002969D01*
X0025016Y0002969D01*
X0020685Y0009661D01*
X0010252Y0009661D01*
X0010252Y0019701D01*
X0009465Y0025409D02*
X0002969Y0030724D01*
X0002969Y0063008D01*
X0002969Y0069110D02*
X0061236Y0069110D01*
M02*
