G75*
%MOIN*%
%OFA0B0*%
%FSLAX25Y25*%
%IPPOS*%
%LPD*%
%AMOC8*
5,1,8,0,0,1.08239X$1,22.5*
%
%ADD10R,0.01000X0.06000*%
%ADD11R,0.04800X0.05900*%
%ADD12R,0.04800X0.06000*%
D10*
X0013205Y0044425D03*
X0015173Y0044425D03*
X0017142Y0044425D03*
X0019110Y0044425D03*
X0021079Y0044425D03*
X0023047Y0044425D03*
X0025016Y0044425D03*
X0026984Y0044425D03*
X0028953Y0044425D03*
X0030921Y0044425D03*
X0032890Y0044425D03*
X0034858Y0044425D03*
X0036827Y0044425D03*
X0038795Y0044425D03*
X0040764Y0044425D03*
X0042732Y0044425D03*
X0044701Y0044425D03*
X0046669Y0044425D03*
X0048638Y0044425D03*
X0050606Y0044425D03*
X0050606Y0058205D03*
X0048638Y0058205D03*
X0046669Y0058205D03*
X0044701Y0058205D03*
X0042732Y0058205D03*
X0040764Y0058205D03*
X0038795Y0058205D03*
X0036827Y0058205D03*
X0034858Y0058205D03*
X0032890Y0058205D03*
X0030921Y0058205D03*
X0028953Y0058205D03*
X0026984Y0058205D03*
X0025016Y0058205D03*
X0023047Y0058205D03*
X0021079Y0058205D03*
X0019110Y0058205D03*
X0017142Y0058205D03*
X0015173Y0058205D03*
X0013205Y0058205D03*
D11*
X0008721Y0051349D03*
D12*
X0055021Y0051299D03*
M02*
