G75*
%MOIN*%
%OFA0B0*%
%FSLAX25Y25*%
%IPPOS*%
%LPD*%
%AMOC8*
5,1,8,0,0,1.08239X$1,22.5*
%
%ADD10C,0.03162*%
%ADD11R,0.04724X0.03937*%
%ADD12C,0.03556*%
%ADD13C,0.04737*%
%ADD14C,0.02769*%
D10*
X0009068Y0057024D03*
X0054937Y0057024D03*
D11*
X0054937Y0057024D03*
X0009268Y0057024D03*
D12*
X0015567Y0014780D03*
X0015567Y0019504D03*
X0015567Y0024228D03*
X0020291Y0024228D03*
X0020291Y0019504D03*
X0020291Y0014780D03*
X0025016Y0014780D03*
X0025016Y0019504D03*
X0025016Y0024228D03*
X0025016Y0028953D03*
X0020291Y0028953D03*
X0015567Y0028953D03*
X0014780Y0037614D03*
X0009268Y0037614D03*
X0029740Y0028953D03*
X0034465Y0028953D03*
X0034465Y0024228D03*
X0034465Y0019504D03*
X0034504Y0014780D03*
X0029740Y0014780D03*
X0029740Y0019504D03*
X0029740Y0024228D03*
X0039189Y0024228D03*
X0039189Y0019504D03*
X0043913Y0019504D03*
X0043913Y0024228D03*
X0043913Y0028953D03*
X0039189Y0028953D03*
X0048638Y0028953D03*
X0048638Y0024228D03*
X0048638Y0019504D03*
X0048638Y0014780D03*
X0043913Y0014780D03*
X0039189Y0014780D03*
X0050213Y0037614D03*
X0054937Y0037614D03*
D13*
X0053362Y0032890D03*
X0010055Y0032890D03*
D14*
X0010843Y0062024D03*
X0017142Y0065173D03*
X0019110Y0063402D03*
X0021079Y0065173D03*
X0023047Y0063402D03*
X0025016Y0065173D03*
X0026984Y0063402D03*
X0028953Y0065173D03*
X0030921Y0063402D03*
X0032890Y0065173D03*
X0034858Y0063402D03*
X0036827Y0065173D03*
X0038795Y0063402D03*
X0040764Y0065173D03*
X0042732Y0063205D03*
X0044701Y0065173D03*
X0046669Y0063205D03*
X0053362Y0061236D03*
M02*
