G75*
%MOIN*%
%OFA0B0*%
%FSLAX25Y25*%
%IPPOS*%
%LPD*%
%AMOC8*
5,1,8,0,0,1.08239X$1,22.5*
%
%ADD10C,0.00800*%
%ADD11C,0.02756*%
%ADD12C,0.03937*%
%ADD13C,0.01969*%
D10*
X0034383Y0042992D02*
X0036518Y0042992D01*
X0039133Y0043526D02*
X0038066Y0045661D01*
X0040201Y0045661D02*
X0039133Y0043526D01*
X0041749Y0043526D02*
X0043350Y0043526D01*
X0043884Y0044060D01*
X0043350Y0044594D01*
X0042283Y0044594D01*
X0041749Y0045127D01*
X0042283Y0045661D01*
X0043884Y0045661D01*
X0045432Y0046195D02*
X0045966Y0046729D01*
X0047033Y0046729D01*
X0047567Y0046195D01*
X0047567Y0045661D01*
X0047033Y0045127D01*
X0047567Y0044594D01*
X0047567Y0044060D01*
X0047033Y0043526D01*
X0045966Y0043526D01*
X0045432Y0044060D01*
X0046500Y0045127D02*
X0047033Y0045127D01*
X0043270Y0048992D02*
X0041135Y0048992D01*
X0039747Y0049526D02*
X0038680Y0049526D01*
X0039213Y0049526D02*
X0039213Y0052729D01*
X0038680Y0052729D01*
X0037132Y0051127D02*
X0037132Y0049526D01*
X0035530Y0049526D01*
X0034996Y0050060D01*
X0035530Y0050594D01*
X0037132Y0050594D01*
X0037132Y0051127D02*
X0036598Y0051661D01*
X0035530Y0051661D01*
X0033448Y0051661D02*
X0031847Y0051661D01*
X0031313Y0051127D01*
X0031313Y0050060D01*
X0031847Y0049526D01*
X0033448Y0049526D01*
X0032301Y0045661D02*
X0031233Y0045661D01*
X0030700Y0045127D01*
X0030700Y0044060D01*
X0031233Y0043526D01*
X0032301Y0043526D01*
X0032835Y0044594D02*
X0030700Y0044594D01*
X0029152Y0044060D02*
X0028618Y0044594D01*
X0027550Y0044594D01*
X0027016Y0045127D01*
X0027550Y0045661D01*
X0029152Y0045661D01*
X0029152Y0044060D02*
X0028618Y0043526D01*
X0027016Y0043526D01*
X0025468Y0043526D02*
X0025468Y0045661D01*
X0023333Y0045661D02*
X0023333Y0044060D01*
X0023867Y0043526D01*
X0025468Y0043526D01*
X0021785Y0044060D02*
X0021251Y0043526D01*
X0020184Y0043526D01*
X0019650Y0044060D01*
X0019650Y0045127D01*
X0020184Y0045661D01*
X0021251Y0045661D01*
X0021785Y0045127D01*
X0021785Y0044060D01*
X0018102Y0043526D02*
X0018102Y0045127D01*
X0017568Y0045661D01*
X0017034Y0045127D01*
X0017034Y0043526D01*
X0015967Y0043526D02*
X0015967Y0045661D01*
X0016501Y0045661D01*
X0017034Y0045127D01*
X0017034Y0049526D02*
X0018102Y0051661D01*
X0019650Y0051127D02*
X0019650Y0050060D01*
X0020184Y0049526D01*
X0021251Y0049526D01*
X0021785Y0050594D02*
X0019650Y0050594D01*
X0019650Y0051127D02*
X0020184Y0051661D01*
X0021251Y0051661D01*
X0021785Y0051127D01*
X0021785Y0050594D01*
X0023333Y0050594D02*
X0024401Y0051661D01*
X0024935Y0051661D01*
X0023333Y0051661D02*
X0023333Y0049526D01*
X0026936Y0050060D02*
X0027470Y0049526D01*
X0026936Y0050060D02*
X0026936Y0052195D01*
X0026402Y0051661D02*
X0027470Y0051661D01*
X0028858Y0051661D02*
X0029392Y0051661D01*
X0029392Y0049526D01*
X0029925Y0049526D02*
X0028858Y0049526D01*
X0029392Y0052729D02*
X0029392Y0053262D01*
X0027924Y0054992D02*
X0025789Y0054992D01*
X0024241Y0056060D02*
X0023707Y0055526D01*
X0022105Y0055526D01*
X0022105Y0058729D01*
X0023707Y0058729D01*
X0024241Y0058195D01*
X0024241Y0057661D01*
X0023707Y0057127D01*
X0022105Y0057127D01*
X0023707Y0057127D02*
X0024241Y0056594D01*
X0024241Y0056060D01*
X0020718Y0055526D02*
X0019650Y0055526D01*
X0020184Y0055526D02*
X0020184Y0058729D01*
X0019650Y0058729D02*
X0020718Y0058729D01*
X0018102Y0058729D02*
X0015967Y0058729D01*
X0015967Y0055526D01*
X0018102Y0055526D01*
X0017034Y0057127D02*
X0015967Y0057127D01*
X0015967Y0051661D02*
X0017034Y0049526D01*
X0029472Y0057127D02*
X0031607Y0057127D01*
X0031073Y0055526D02*
X0031073Y0058729D01*
X0029472Y0057127D01*
X0033155Y0056060D02*
X0035290Y0058195D01*
X0035290Y0056060D01*
X0034756Y0055526D01*
X0033689Y0055526D01*
X0033155Y0056060D01*
X0033155Y0058195D01*
X0033689Y0058729D01*
X0034756Y0058729D01*
X0035290Y0058195D01*
X0036838Y0057661D02*
X0038439Y0057661D01*
X0038973Y0057127D01*
X0038973Y0056060D01*
X0038439Y0055526D01*
X0036838Y0055526D01*
X0036838Y0054458D02*
X0036838Y0057661D01*
X0040521Y0057661D02*
X0041055Y0057661D01*
X0041055Y0055526D01*
X0040521Y0055526D02*
X0041589Y0055526D01*
X0042977Y0055526D02*
X0042977Y0057661D01*
X0044578Y0057661D01*
X0045112Y0057127D01*
X0045112Y0055526D01*
X0046660Y0054992D02*
X0048795Y0054992D01*
X0041055Y0058729D02*
X0041055Y0059262D01*
X0032301Y0045661D02*
X0032835Y0045127D01*
X0032835Y0044594D01*
D11*
X0015567Y0014780D03*
X0015567Y0019504D03*
X0015567Y0024228D03*
X0020291Y0024228D03*
X0020291Y0019504D03*
X0020291Y0014780D03*
X0025016Y0014780D03*
X0025016Y0019504D03*
X0025016Y0024228D03*
X0025016Y0028953D03*
X0020291Y0028953D03*
X0015567Y0028953D03*
X0014780Y0037614D03*
X0009268Y0037614D03*
X0029740Y0028953D03*
X0034465Y0028953D03*
X0034465Y0024228D03*
X0034465Y0019504D03*
X0034504Y0014780D03*
X0029740Y0014780D03*
X0029740Y0019504D03*
X0029740Y0024228D03*
X0039189Y0024228D03*
X0039189Y0019504D03*
X0043913Y0019504D03*
X0043913Y0024228D03*
X0043913Y0028953D03*
X0039189Y0028953D03*
X0048638Y0028953D03*
X0048638Y0024228D03*
X0048638Y0019504D03*
X0048638Y0014780D03*
X0043913Y0014780D03*
X0039189Y0014780D03*
X0050213Y0037614D03*
X0054937Y0037614D03*
D12*
X0053362Y0032890D03*
X0010055Y0032890D03*
D13*
X0010843Y0062024D03*
X0017142Y0065173D03*
X0019110Y0063402D03*
X0021079Y0065173D03*
X0023047Y0063402D03*
X0025016Y0065173D03*
X0026984Y0063402D03*
X0028953Y0065173D03*
X0030921Y0063402D03*
X0032890Y0065173D03*
X0034858Y0063402D03*
X0036827Y0065173D03*
X0038795Y0063402D03*
X0040764Y0065173D03*
X0042732Y0063205D03*
X0044701Y0065173D03*
X0046669Y0063205D03*
X0053362Y0061236D03*
M02*
